<svg width="14" height="26" viewBox="0 0 14 26" fill="none" xmlns="http://www.w3.org/2000/svg">
<g clip-path="url(#clip0_547_109)">
<path fill-rule="evenodd" clip-rule="evenodd" d="M0.465503 25.6201C0.980957 26.1271 1.81459 26.1271 2.32878 25.6201L13.2271 14.8769C13.4711 14.6401 13.6653 14.3551 13.7981 14.0392C13.9308 13.7233 13.9993 13.3831 13.9993 13.0393C13.9993 12.6956 13.9308 12.3554 13.7981 12.0395C13.6653 11.7236 13.4711 11.4386 13.2271 11.2018L2.24987 0.379285C2.00073 0.137417 1.67081 0.00147067 1.32711 -0.000943843C0.983406 -0.00335835 0.651687 0.12794 0.399321 0.366285C0.274303 0.483987 0.174273 0.626651 0.105424 0.785443C0.0365745 0.944234 0.000372874 1.11577 -0.000939551 1.28943C-0.00225198 1.4631 0.0313528 1.63518 0.0977937 1.79504C0.164235 1.9549 0.262097 2.09913 0.385321 2.21879L10.4322 12.1209C10.5543 12.2393 10.6515 12.3818 10.7179 12.5399C10.7844 12.6979 10.8186 12.868 10.8186 13.04C10.8186 13.2119 10.7844 13.3821 10.7179 13.5401C10.6515 13.6981 10.5543 13.8407 10.4322 13.9591L0.465503 23.7832C0.343461 23.9015 0.246273 24.0439 0.179859 24.2018C0.113445 24.3597 0.0791954 24.5298 0.0791954 24.7016C0.0791954 24.8735 0.113445 25.0435 0.179859 25.2014C0.246273 25.3593 0.343461 25.5018 0.465503 25.6201Z" fill="black"/>
<path fill-rule="evenodd" clip-rule="evenodd" d="M0.465503 25.6201C0.980957 26.1271 1.81459 26.1271 2.32878 25.6201L13.2271 14.8769C13.4711 14.6401 13.6653 14.3551 13.7981 14.0392C13.9308 13.7233 13.9993 13.3831 13.9993 13.0393C13.9993 12.6956 13.9308 12.3554 13.7981 12.0395C13.6653 11.7236 13.4711 11.4386 13.2271 11.2018L2.24987 0.379285C2.00073 0.137417 1.67081 0.00147067 1.32711 -0.000943843C0.983406 -0.00335835 0.651687 0.12794 0.399321 0.366285C0.274303 0.483987 0.174273 0.626651 0.105424 0.785443C0.0365745 0.944234 0.000372874 1.11577 -0.000939551 1.28943C-0.00225198 1.4631 0.0313528 1.63518 0.0977937 1.79504C0.164235 1.9549 0.262097 2.09913 0.385321 2.21879L10.4322 12.1209C10.5543 12.2393 10.6515 12.3818 10.7179 12.5399C10.7844 12.6979 10.8186 12.868 10.8186 13.04C10.8186 13.2119 10.7844 13.3821 10.7179 13.5401C10.6515 13.6981 10.5543 13.8407 10.4322 13.9591L0.465503 23.7832C0.343461 23.9015 0.246273 24.0439 0.179859 24.2018C0.113445 24.3597 0.0791954 24.5298 0.0791954 24.7016C0.0791954 24.8735 0.113445 25.0435 0.179859 25.2014C0.246273 25.3593 0.343461 25.5018 0.465503 25.6201Z" fill="#E6F4FB"/>
</g>
<defs>
<clipPath id="clip0_547_109">
<rect width="14" height="26" fill="white"/>
</clipPath>
</defs>
</svg>
