<svg width="40" height="40" viewBox="0 0 40 40" fill="none" xmlns="http://www.w3.org/2000/svg">
<path d="M23.2357 9.90644V27.3944C23.2357 27.8344 22.8758 28.1944 22.4357 28.1944H14.7957C14.6117 25.3545 12.2438 23.1065 9.35566 23.1065C6.46778 23.1065 4.0918 25.3545 3.90781 28.1944H3.14766C1.85176 28.1944 0.803711 27.1385 0.803711 25.8504V9.90644C0.803711 8.61044 1.85176 7.5625 3.14766 7.5625H20.8918C22.1877 7.56249 23.2357 8.61044 23.2357 9.90644ZM38.8117 17.6744L35.2758 12.6104C34.8437 11.9864 34.1078 11.6104 33.3238 11.6104H24.8357V27.3944C24.8357 27.6664 24.7877 27.9305 24.6996 28.1784C24.7396 28.1864 24.7877 28.1944 24.8357 28.1944H26.1797C26.3637 25.3545 28.7316 23.1064 31.6197 23.1064C34.5078 23.1064 36.8758 25.3465 37.0598 28.1864C38.2518 28.0904 39.1957 27.1225 39.1957 25.9385V18.9225C39.1957 18.9145 39.1957 18.9064 39.1957 18.9064C39.1957 18.4744 39.0598 18.0504 38.8117 17.6744ZM27.9238 19.4584V15.4984H32.5477L35.3156 19.4664L27.9238 19.4584Z" fill="white"/>
<path d="M9.35468 32.4379C11.49 32.4379 13.2211 30.7068 13.2211 28.5715C13.2211 26.4361 11.49 24.7051 9.35468 24.7051C7.21933 24.7051 5.48828 26.4361 5.48828 28.5715C5.48828 30.7068 7.21933 32.4379 9.35468 32.4379Z" fill="white"/>
<path d="M31.6203 32.4379C33.7557 32.4379 35.4867 30.7068 35.4867 28.5715C35.4867 26.4361 33.7557 24.7051 31.6203 24.7051C29.485 24.7051 27.7539 26.4361 27.7539 28.5715C27.7539 30.7068 29.485 32.4379 31.6203 32.4379Z" fill="white"/>
</svg>
