<svg width="32" height="32" viewBox="0 0 32 32" fill="none" xmlns="http://www.w3.org/2000/svg">
<path d="M19.674 15.3179C19.662 15.3079 19.646 15.3039 19.634 15.2939L11.92 8.31191C11.486 7.92191 10.782 7.92191 10.348 8.31191C10.344 8.31591 10.342 8.31991 10.34 8.32391C10.2349 8.41068 10.15 8.51935 10.0913 8.64233C10.0326 8.76531 10.0014 8.89963 10 9.03591V23.0019C10.0022 23.1407 10.0349 23.2773 10.0958 23.402C10.1566 23.5268 10.2441 23.6367 10.352 23.7239L10.348 23.7279C10.5664 23.9166 10.8454 24.0205 11.134 24.0205C11.4226 24.0205 11.7016 23.9166 11.92 23.7279L19.674 16.7299C19.7761 16.6428 19.8581 16.5346 19.9144 16.4127C19.9706 16.2908 19.9997 16.1581 19.9997 16.0239C19.9997 15.8897 19.9706 15.757 19.9144 15.6352C19.8581 15.5133 19.7761 15.405 19.674 15.3179Z" fill="white"/>
</svg>
