<svg width="40" height="40" viewBox="0 0 40 40" fill="none" xmlns="http://www.w3.org/2000/svg">
<path d="M8.87104 23.1311C8.28017 23.1311 7.70257 23.3063 7.21128 23.6346C6.71998 23.9628 6.33707 24.4294 6.11095 24.9753C5.88483 25.5212 5.82567 26.1219 5.94094 26.7014C6.05622 27.2809 6.34075 27.8132 6.75856 28.2311C7.17637 28.6489 7.70869 28.9334 8.28821 29.0487C8.86773 29.1639 9.46841 29.1048 10.0143 28.8787C10.5602 28.6525 11.0268 28.2696 11.3551 27.7783C11.6833 27.287 11.8585 26.7094 11.8585 26.1186C11.8579 25.3264 11.5429 24.5669 10.9828 24.0068C10.4227 23.4467 9.66317 23.1317 8.87104 23.1311ZM9.53354 26.7811C9.49065 26.8239 9.44469 26.8636 9.39604 26.8998C9.33979 26.9311 9.28979 26.9623 9.23354 26.9873C9.17729 27.0123 9.11479 27.0248 9.05854 27.0373C8.90672 27.0682 8.74962 27.0609 8.60129 27.0162C8.45295 26.9715 8.31802 26.8907 8.20854 26.7811C8.16433 26.7388 8.12644 26.6904 8.09604 26.6373C8.05849 26.5881 8.02895 26.5333 8.00854 26.4748C7.98328 26.4188 7.96441 26.3601 7.95229 26.2998C7.9273 26.1803 7.9273 26.0569 7.95229 25.9373C7.96441 25.8771 7.98328 25.8184 8.00854 25.7623C8.02895 25.7039 8.05849 25.649 8.09604 25.5998C8.12802 25.5478 8.16576 25.4996 8.20854 25.4561C8.2536 25.4131 8.30163 25.3735 8.35229 25.3373C8.40315 25.3041 8.45768 25.2768 8.51479 25.2561C8.57083 25.2308 8.62953 25.2119 8.68979 25.1998C8.81144 25.1748 8.9369 25.1748 9.05854 25.1998C9.11856 25.2129 9.17717 25.2317 9.23354 25.2561C9.29009 25.2781 9.34449 25.3053 9.39604 25.3373C9.44469 25.3735 9.49065 25.4132 9.53354 25.4561C9.57647 25.5011 9.61615 25.5492 9.65229 25.5998C9.68515 25.6519 9.71439 25.7062 9.73979 25.7623C9.76016 25.8195 9.77686 25.878 9.78979 25.9373C9.80253 25.9969 9.80881 26.0577 9.80854 26.1186C9.80832 26.3671 9.70941 26.6054 9.53354 26.7811ZM30.8523 23.1311C30.2614 23.1311 29.6838 23.3063 29.1925 23.6346C28.7012 23.9628 28.3183 24.4294 28.0922 24.9753C27.8661 25.5212 27.8069 26.1219 27.9222 26.7014C28.0375 27.2809 28.322 27.8132 28.7398 28.2311C29.1576 28.6489 29.6899 28.9334 30.2695 29.0487C30.849 29.1639 31.4497 29.1048 31.9956 28.8787C32.5415 28.6525 33.008 28.2696 33.3363 27.7783C33.6646 27.287 33.8398 26.7094 33.8398 26.1186C33.8391 25.3264 33.5242 24.5669 32.964 24.0068C32.4039 23.4467 31.6444 23.1317 30.8523 23.1311ZM31.771 26.2998C31.764 26.3605 31.7471 26.4196 31.721 26.4748C31.6995 26.5327 31.67 26.5874 31.6335 26.6373C31.6009 26.6906 31.561 26.739 31.5148 26.7811C31.4719 26.8239 31.4259 26.8636 31.3773 26.8998C31.3252 26.9327 31.2709 26.9619 31.2148 26.9873C31.1585 27.0061 31.096 27.0248 31.0398 27.0373C30.888 27.0682 30.7309 27.0609 30.5825 27.0162C30.4342 26.9715 30.2993 26.8907 30.1898 26.7811C30.1456 26.7388 30.1077 26.6904 30.0773 26.6373C30.0408 26.5874 30.0114 26.5327 29.9898 26.4748C29.9645 26.4188 29.9457 26.3601 29.9335 26.2998C29.9085 26.1803 29.9085 26.0569 29.9335 25.9373C29.9753 25.7572 30.0637 25.5913 30.1898 25.4561C30.3202 25.3227 30.4881 25.2321 30.6711 25.1964C30.8542 25.1607 31.0438 25.1815 31.2148 25.2561C31.2719 25.2768 31.3264 25.3041 31.3773 25.3373C31.4259 25.3735 31.4719 25.4132 31.5148 25.4561C31.5595 25.4995 31.5993 25.5477 31.6335 25.5998C31.6688 25.6505 31.6981 25.705 31.721 25.7623C31.7471 25.8176 31.764 25.8767 31.771 25.9373C31.796 26.0569 31.796 26.1803 31.771 26.2998ZM38.0335 21.3123H35.7335C35.6362 21.314 35.5398 21.2925 35.4523 21.2498L34.8835 20.9623C34.8075 20.9274 34.7392 20.8775 34.6828 20.8157C34.6264 20.7539 34.5829 20.6814 34.5551 20.6024C34.5272 20.5235 34.5155 20.4398 34.5206 20.3563C34.5257 20.2727 34.5475 20.1911 34.5848 20.1161C34.622 20.0412 34.674 19.9745 34.7375 19.92C34.801 19.8655 34.8749 19.8243 34.9546 19.7989C35.0343 19.7735 35.1184 19.7643 35.2017 19.772C35.2851 19.7797 35.366 19.804 35.4398 19.8436L35.8835 20.0623H37.5148C37.496 20.0373 37.4835 20.0061 37.4648 19.9748C37.2869 19.6729 37.0465 19.4124 36.7598 19.2108C36.4731 19.0093 36.1466 18.8713 35.8023 18.8061L30.146 17.6936C30.0323 17.6721 29.9265 17.6203 29.8398 17.5436L25.3335 13.3811C23.603 11.778 21.3299 10.8893 18.971 10.8936H12.1335C9.68979 10.8936 7.46479 12.0248 4.68354 14.6623C4.22729 15.0936 3.83979 15.4436 3.50854 15.7373C2.40854 16.7123 2.04604 17.0436 1.92104 18.3061C1.98985 18.2046 2.08697 18.1256 2.20032 18.079C2.31367 18.0323 2.43825 18.02 2.55854 18.0436L3.84604 18.2936C3.98836 18.3211 4.11668 18.3973 4.20904 18.509C4.30139 18.6207 4.35203 18.7611 4.35229 18.9061V19.2873C4.35229 19.4531 4.28644 19.6121 4.16923 19.7293C4.05202 19.8465 3.89305 19.9123 3.72729 19.9123C3.58538 19.914 3.44731 19.8663 3.33672 19.7773C3.22612 19.6884 3.14988 19.5638 3.12104 19.4248L2.32104 19.2686C2.22273 19.2493 2.13065 19.2062 2.05294 19.143C1.97523 19.0798 1.91426 18.9984 1.87542 18.9061C1.85667 19.3248 1.85042 19.8248 1.85042 20.4436C1.84423 20.7232 1.87363 21.0026 1.93792 21.2748L1.96917 21.4311C2.25667 22.9998 2.74417 24.6623 4.81292 24.9186C5.07109 24.0386 5.60835 23.2665 6.34367 22.7186C7.07899 22.1707 7.97252 21.8767 8.88952 21.8809C9.80653 21.8851 10.6973 22.1874 11.4275 22.7421C12.1578 23.2967 12.6879 24.0738 12.9379 24.9561H26.7817C27.0325 24.0733 27.5636 23.2959 28.2948 22.7413C29.0261 22.1867 29.9178 21.8849 30.8355 21.8814C31.7533 21.8778 32.6473 22.1728 33.3828 22.7218C34.1182 23.2707 34.6553 24.044 34.9129 24.9248C35.9317 24.8123 37.3317 24.3436 37.9442 23.0873C38.1857 22.5255 38.2175 21.8956 38.0335 21.3123ZM27.1398 17.7123H5.62542C5.49439 17.7127 5.36657 17.6718 5.26002 17.5955C5.15348 17.5193 5.07359 17.4115 5.03167 17.2873C4.99166 17.1644 4.98996 17.0322 5.02679 16.9083C5.06363 16.7844 5.13726 16.6747 5.23792 16.5936L9.43167 13.3061C9.56196 13.2046 9.72713 13.1588 9.89108 13.1787C10.055 13.1986 10.2044 13.2826 10.3067 13.4123C10.3576 13.4765 10.3954 13.5503 10.4176 13.6292C10.4399 13.7081 10.4463 13.7906 10.4364 13.872C10.4265 13.9534 10.4005 14.032 10.36 14.1033C10.3195 14.1746 10.2653 14.2372 10.2004 14.2873L7.43792 16.4623H13.2317V12.9936C13.2317 12.8278 13.2975 12.6688 13.4147 12.5516C13.5319 12.4344 13.6909 12.3686 13.8567 12.3686C14.0224 12.3686 14.1814 12.4344 14.2986 12.5516C14.4158 12.6688 14.4817 12.8278 14.4817 12.9936V16.4623H19.3754V12.9936C19.3754 12.8278 19.4413 12.6688 19.5585 12.5516C19.6757 12.4344 19.8347 12.3686 20.0004 12.3686C20.1662 12.3686 20.3251 12.4344 20.4424 12.5516C20.5596 12.6688 20.6254 12.8278 20.6254 12.9936V16.4623H27.1379C27.3037 16.4623 27.4626 16.5282 27.5799 16.6454C27.6971 16.7626 27.7629 16.9216 27.7629 17.0873C27.7629 17.2531 27.6971 17.4121 27.5799 17.5293C27.4626 17.6465 27.3037 17.7123 27.1379 17.7123H27.1398Z" fill="white"/>
</svg>
