<svg width="24" height="24" viewBox="0 0 24 24" fill="none" xmlns="http://www.w3.org/2000/svg">
<path d="M21 5.875C21.2031 5.875 21.399 5.94569 21.5547 6.07324L21.6191 6.13086L21.6768 6.19531C21.8045 6.35105 21.875 6.54681 21.875 6.75C21.875 6.98212 21.7833 7.20501 21.6191 7.36914L9.61914 19.3691C9.53792 19.4504 9.4411 19.5146 9.33496 19.5586C9.22879 19.6026 9.11492 19.626 9 19.626C8.88508 19.6259 8.7712 19.6026 8.66504 19.5586C8.55887 19.5146 8.46208 19.4504 8.38086 19.3691L3.13086 14.1191C2.9874 13.9756 2.89882 13.7871 2.87891 13.5869L2.875 13.5L2.87891 13.4141C2.89872 13.2136 2.98715 13.0246 3.13086 12.8809L3.19531 12.8232C3.35102 12.6956 3.5469 12.625 3.75 12.625C3.95306 12.625 4.14896 12.6957 4.30469 12.8232L4.36914 12.8809L9 17.5117L20.3809 6.13086L20.4453 6.07324C20.601 5.9456 20.7969 5.87505 21 5.875Z" fill="#51EE56" stroke="#51EE56"/>
</svg>
