<svg width="67" height="67" viewBox="0 0 67 67" fill="none" xmlns="http://www.w3.org/2000/svg">
<path d="M33.5 4.1875C27.7025 4.1875 22.0353 5.90665 17.2149 9.12755C12.3944 12.3484 8.63739 16.9264 6.41879 22.2826C4.2002 27.6388 3.61972 33.5325 4.75074 39.2186C5.88177 44.9047 8.67352 50.1276 12.7729 54.2271C16.8724 58.3265 22.0954 61.1182 27.7814 62.2493C33.4675 63.3803 39.3613 62.7998 44.7174 60.5812C50.0736 58.3626 54.6516 54.6056 57.8725 49.7852C61.0934 44.9647 62.8125 39.2975 62.8125 33.5C62.8125 25.7258 59.7242 18.2701 54.2271 12.7729C48.7299 7.27577 41.2742 4.1875 33.5 4.1875ZM33.5 58.625C28.5308 58.625 23.6731 57.1514 19.5413 54.3907C15.4095 51.6299 12.1892 47.7059 10.2875 43.1149C8.38589 38.5239 7.88833 33.4721 8.85778 28.5984C9.82724 23.7246 12.2202 19.2477 15.734 15.7339C19.2477 12.2201 23.7246 9.82722 28.5984 8.85777C33.4721 7.88832 38.5239 8.38587 43.1149 10.2875C47.7059 12.1892 51.6299 15.4095 54.3907 19.5413C57.1515 23.6731 58.625 28.5307 58.625 33.5C58.625 40.1636 55.9779 46.5542 51.2661 51.2661C46.5542 55.9779 40.1636 58.625 33.5 58.625Z" fill="white"/>
<path d="M44.3875 24.5602L33.5 39.0908L22.6125 24.5602C22.4475 24.3402 22.2408 24.1549 22.0043 24.0148C21.7677 23.8747 21.5058 23.7826 21.2336 23.7437C20.9614 23.7048 20.6842 23.7199 20.4179 23.7882C20.1515 23.8564 19.9012 23.9764 19.6812 24.1414C19.4613 24.3064 19.276 24.5131 19.1359 24.7497C18.9958 24.9862 18.9037 25.2481 18.8648 25.5203C18.8259 25.7925 18.841 26.0697 18.9093 26.336C18.9775 26.6024 19.0975 26.8527 19.2625 27.0727L30.15 41.6033C30.5401 42.1234 31.0458 42.5455 31.6273 42.8362C32.2087 43.1269 32.8499 43.2783 33.5 43.2783C34.1501 43.2783 34.7912 43.1269 35.3727 42.8362C35.9542 42.5455 36.4599 42.1234 36.85 41.6033L47.7375 27.0727C47.9025 26.8527 48.0225 26.6024 48.0907 26.336C48.159 26.0697 48.1741 25.7925 48.1352 25.5203C48.0963 25.2481 48.0042 24.9862 47.8641 24.7497C47.724 24.5131 47.5387 24.3064 47.3188 24.1414C47.0988 23.9764 46.8485 23.8564 46.5821 23.7882C46.3158 23.7199 46.0386 23.7048 45.7664 23.7437C45.4942 23.7826 45.2323 23.8747 44.9957 24.0148C44.7592 24.1549 44.5525 24.3402 44.3875 24.5602Z" fill="white"/>
</svg>
