<svg width="48" height="48" viewBox="0 0 48 48" fill="none" xmlns="http://www.w3.org/2000/svg">
<path d="M14 32.5996C18.4 32.5996 22 28.9396 22 24.4996C22 22.1796 20.86 19.9796 18.58 18.1196C16.3 16.2596 14.58 13.4996 14 10.5996C13.42 13.4996 11.72 16.2796 9.42 18.1196C7.12 19.9596 6 22.1996 6 24.4996C6 28.9396 9.6 32.5996 14 32.5996Z" stroke="#E6F4FB" stroke-width="3" stroke-linecap="round" stroke-linejoin="round"/>
<path d="M25.1197 13.2C26.4952 11.0023 27.4703 8.57813 27.9997 6.04004C28.9997 11.04 31.9997 15.84 35.9997 19.04C39.9997 22.24 41.9997 26.04 41.9997 30.04C42.0111 32.8046 41.2014 35.5103 39.6733 37.8142C38.1451 40.1181 35.9673 41.9163 33.4159 42.981C30.8646 44.0457 28.0545 44.3288 25.342 43.7946C22.6295 43.2603 20.1368 41.9327 18.1797 39.98" stroke="#E6F4FB" stroke-width="3" stroke-linecap="round" stroke-linejoin="round"/>
</svg>
