<svg width="40" height="40" viewBox="0 0 40 40" fill="none" xmlns="http://www.w3.org/2000/svg">
<path d="M28.8997 9.09967C28.5041 9.09967 28.1174 9.21697 27.7885 9.43674C27.4596 9.6565 27.2033 9.96886 27.0519 10.3343C26.9005 10.6998 26.8609 11.1019 26.9381 11.4899C27.0153 11.8778 27.2058 12.2342 27.4855 12.5139C27.7652 12.7936 28.1215 12.9841 28.5095 13.0612C28.8975 13.1384 29.2996 13.0988 29.665 12.9474C30.0305 12.7961 30.3428 12.5397 30.5626 12.2108C30.7824 11.8819 30.8997 11.4952 30.8997 11.0997C30.8997 10.5692 30.689 10.0605 30.3139 9.68546C29.9388 9.31039 29.4301 9.09967 28.8997 9.09967ZM36.5663 13.133C36.5339 11.7502 36.2749 10.382 35.7997 9.08301C35.3759 7.97156 34.7163 6.96514 33.8663 6.13301C33.041 5.27872 32.0323 4.6233 30.9163 4.21634C29.6208 3.72661 28.2511 3.46169 26.8663 3.43301C25.0997 3.33301 24.533 3.33301 19.9997 3.33301C15.4663 3.33301 14.8997 3.33301 13.133 3.43301C11.7483 3.46169 10.3786 3.72661 9.08301 4.21634C7.96913 4.62742 6.96123 5.28228 6.13301 6.13301C5.27872 6.9583 4.6233 7.96707 4.21634 9.08301C3.72661 10.3786 3.46169 11.7483 3.43301 13.133C3.33301 14.8997 3.33301 15.4663 3.33301 19.9997C3.33301 24.533 3.33301 25.0997 3.43301 26.8663C3.46169 28.2511 3.72661 29.6208 4.21634 30.9163C4.6233 32.0323 5.27872 33.041 6.13301 33.8663C6.96123 34.7171 7.96913 35.3719 9.08301 35.783C10.3786 36.2727 11.7483 36.5377 13.133 36.5663C14.8997 36.6663 15.4663 36.6663 19.9997 36.6663C24.533 36.6663 25.0997 36.6663 26.8663 36.5663C28.2511 36.5377 29.6208 36.2727 30.9163 35.783C32.0323 35.376 33.041 34.7206 33.8663 33.8663C34.7201 33.0373 35.3802 32.03 35.7997 30.9163C36.2749 29.6173 36.5339 28.2492 36.5663 26.8663C36.5663 25.0997 36.6663 24.533 36.6663 19.9997C36.6663 15.4663 36.6663 14.8997 36.5663 13.133ZM33.5663 26.6663C33.5542 27.7243 33.3626 28.7725 32.9997 29.7663C32.7336 30.4917 32.3061 31.147 31.7497 31.683C31.2091 32.2339 30.555 32.6604 29.833 32.933C28.8392 33.2959 27.791 33.4875 26.733 33.4997C25.0663 33.583 24.4497 33.5997 20.0663 33.5997C15.683 33.5997 15.0663 33.5997 13.3997 33.4997C12.3012 33.5202 11.2073 33.3511 10.1663 32.9997C9.47598 32.7131 8.85193 32.2877 8.33301 31.7497C7.77982 31.2143 7.35775 30.5583 7.09967 29.833C6.69277 28.8249 6.46708 27.7529 6.43301 26.6663C6.43301 24.9997 6.33301 24.383 6.33301 19.9997C6.33301 15.6163 6.33301 14.9997 6.43301 13.333C6.44048 12.2514 6.63792 11.1796 7.01634 10.1663C7.30975 9.46286 7.76012 8.83577 8.33301 8.33301C8.83936 7.75995 9.46515 7.30483 10.1663 6.99967C11.1823 6.63308 12.253 6.44147 13.333 6.43301C14.9997 6.43301 15.6163 6.33301 19.9997 6.33301C24.383 6.33301 24.9997 6.33301 26.6663 6.43301C27.7243 6.44514 28.7725 6.63675 29.7663 6.99967C30.5237 7.28076 31.2035 7.73775 31.7497 8.33301C32.2958 8.84497 32.7226 9.4709 32.9997 10.1663C33.3701 11.1812 33.5618 12.2526 33.5663 13.333C33.6497 14.9997 33.6663 15.6163 33.6663 19.9997C33.6663 24.383 33.6497 24.9997 33.5663 26.6663ZM19.9997 11.4497C18.3094 11.453 16.6579 11.9572 15.2541 12.8987C13.8503 13.8402 12.757 15.1767 12.1124 16.7393C11.4678 18.3019 11.3009 20.0205 11.6327 21.6779C11.9644 23.3353 12.7801 24.8572 13.9765 26.0513C15.1729 27.2454 16.6964 28.058 18.3544 28.3866C20.0125 28.7151 21.7308 28.5449 23.2921 27.8972C24.8535 27.2496 26.1878 26.1537 27.1266 24.7481C28.0653 23.3424 28.5663 21.69 28.5663 19.9997C28.5685 18.8748 28.3483 17.7607 27.9184 16.7213C27.4885 15.6819 26.8573 14.7377 26.0611 13.9431C25.265 13.1485 24.3196 12.5191 23.2793 12.0912C22.2391 11.6633 21.1245 11.4453 19.9997 11.4497ZM19.9997 25.5497C18.902 25.5497 17.829 25.2242 16.9163 24.6143C16.0036 24.0045 15.2922 23.1377 14.8721 22.1236C14.4521 21.1094 14.3422 19.9935 14.5563 18.9169C14.7705 17.8403 15.299 16.8514 16.0752 16.0752C16.8514 15.299 17.8403 14.7705 18.9169 14.5563C19.9935 14.3422 21.1094 14.4521 22.1236 14.8721C23.1377 15.2922 24.0045 16.0036 24.6143 16.9163C25.2242 17.829 25.5497 18.902 25.5497 19.9997C25.5497 20.7285 25.4061 21.4502 25.1272 22.1236C24.8483 22.7969 24.4395 23.4088 23.9241 23.9241C23.4088 24.4395 22.7969 24.8483 22.1236 25.1272C21.4502 25.4061 20.7285 25.5497 19.9997 25.5497Z" fill="white"/>
</svg>
