<svg width="40" height="40" viewBox="0 0 40 40" fill="none" xmlns="http://www.w3.org/2000/svg">
<path d="M36.6663 11.667L21.6813 21.212C21.1728 21.5073 20.5952 21.6629 20.0072 21.6629C19.4191 21.6629 18.8415 21.5073 18.333 21.212L3.33301 11.667" stroke="#1788C0" stroke-width="3" stroke-linecap="round" stroke-linejoin="round"/>
<path d="M33.333 6.66699H6.66634C4.82539 6.66699 3.33301 8.15938 3.33301 10.0003V30.0003C3.33301 31.8413 4.82539 33.3337 6.66634 33.3337H33.333C35.174 33.3337 36.6663 31.8413 36.6663 30.0003V10.0003C36.6663 8.15938 35.174 6.66699 33.333 6.66699Z" stroke="#1788C0" stroke-width="3" stroke-linecap="round" stroke-linejoin="round"/>
<path d="M33.333 6.66699H6.66634C4.82539 6.66699 3.33301 8.15938 3.33301 10.0003V30.0003C3.33301 31.8413 4.82539 33.3337 6.66634 33.3337H33.333C35.174 33.3337 36.6663 31.8413 36.6663 30.0003V10.0003C36.6663 8.15938 35.174 6.66699 33.333 6.66699Z" stroke="#1788C0" stroke-width="3" stroke-linecap="round" stroke-linejoin="round"/>
</svg>
