<svg width="40" height="40" viewBox="0 0 40 40" fill="none" xmlns="http://www.w3.org/2000/svg">
<rect width="40" height="40" fill="white"/>
<path d="M33.3337 16.6663C33.3337 24.988 24.102 33.6547 21.002 36.3313C20.7132 36.5485 20.3617 36.6659 20.0003 36.6659C19.639 36.6659 19.2875 36.5485 18.9987 36.3313C15.8987 33.6547 6.66699 24.988 6.66699 16.6663C6.66699 13.1301 8.07175 9.73874 10.5722 7.23825C13.0727 4.73777 16.4641 3.33301 20.0003 3.33301C23.5365 3.33301 26.9279 4.73777 29.4284 7.23825C31.9289 9.73874 33.3337 13.1301 33.3337 16.6663Z" stroke="#D72029" stroke-width="3" stroke-linecap="round" stroke-linejoin="round"/>
<path d="M20 21.667C22.7614 21.667 25 19.4284 25 16.667C25 13.9056 22.7614 11.667 20 11.667C17.2386 11.667 15 13.9056 15 16.667C15 19.4284 17.2386 21.667 20 21.667Z" stroke="#D72029" stroke-width="3" stroke-linecap="round" stroke-linejoin="round"/>
</svg>
