<svg width="39" height="39" viewBox="0 0 39 39" fill="none" xmlns="http://www.w3.org/2000/svg">
<path d="M22.477 26.923C22.8126 27.0771 23.1907 27.1123 23.549 27.0228C23.9073 26.9333 24.2244 26.7245 24.4481 26.4306L25.025 25.675C25.3277 25.2714 25.7203 24.9438 26.1716 24.7181C26.6228 24.4925 27.1205 24.375 27.625 24.375H32.5C33.362 24.375 34.1886 24.7174 34.7981 25.3269C35.4076 25.9364 35.75 26.7631 35.75 27.625V32.5C35.75 33.362 35.4076 34.1886 34.7981 34.7981C34.1886 35.4076 33.362 35.75 32.5 35.75C24.7424 35.75 17.3026 32.6683 11.8171 27.1829C6.33169 21.6974 3.25 14.2576 3.25 6.5C3.25 5.63805 3.59241 4.8114 4.2019 4.2019C4.8114 3.59241 5.63805 3.25 6.5 3.25H11.375C12.237 3.25 13.0636 3.59241 13.6731 4.2019C14.2826 4.8114 14.625 5.63805 14.625 6.5V11.375C14.625 11.8795 14.5075 12.3772 14.2819 12.8284C14.0563 13.2797 13.7286 13.6723 13.325 13.975L12.5645 14.5454C12.2662 14.7732 12.0559 15.0972 11.9694 15.4624C11.8829 15.8277 11.9255 16.2116 12.09 16.549C14.3109 21.0598 17.9634 24.7078 22.477 26.923Z" stroke="#51EE56" stroke-width="3" stroke-linecap="round" stroke-linejoin="round"/>
</svg>
