<svg width="40" height="40" viewBox="0 0 40 40" fill="none" xmlns="http://www.w3.org/2000/svg">
<path d="M9.90358 20.9043C9.97897 20.9043 10.0536 20.907 10.1274 20.9129C10.1497 20.9148 10.1719 20.9168 10.1938 20.9191C10.211 20.9207 10.2278 20.9227 10.2442 20.9246L10.2731 20.9281C10.2903 20.9305 10.3075 20.9328 10.3247 20.9355C10.3426 20.9383 10.3606 20.941 10.3786 20.9441C10.4169 20.9504 10.4551 20.9578 10.493 20.966C10.5364 20.975 10.579 20.9852 10.6215 20.9961H10.6219C10.6575 21.0055 10.693 21.0156 10.7282 21.0262C10.7493 21.0324 10.7704 21.0391 10.7911 21.0461C10.8098 21.052 10.8282 21.0582 10.8465 21.0648L10.9016 21.0848C10.92 21.0918 10.9379 21.0988 10.9559 21.1059C10.9922 21.1203 11.0278 21.1355 11.0633 21.1512C11.0946 21.1652 11.1258 21.1801 11.1567 21.1953C11.1692 21.2012 11.1813 21.207 11.1934 21.2137C11.2196 21.227 11.2454 21.2406 11.2708 21.2547C11.2876 21.2641 11.3044 21.2734 11.3212 21.2832C11.3714 21.3117 11.4205 21.3421 11.4684 21.3742C11.484 21.3844 11.4997 21.3949 11.5153 21.4055C11.5161 21.4062 11.5169 21.4066 11.5176 21.4074C11.5329 21.418 11.5481 21.4285 11.5629 21.4395C11.5805 21.452 11.5981 21.4648 11.6153 21.4781C11.6438 21.4996 11.6719 21.5219 11.6997 21.5445C11.7145 21.5566 11.7294 21.5687 11.7438 21.5812C11.7575 21.5926 11.7708 21.6043 11.784 21.616C11.8001 21.6301 11.8157 21.6441 11.8309 21.6586C11.8446 21.6711 11.8579 21.684 11.8715 21.6969C11.8993 21.723 11.9262 21.7504 11.9524 21.7777C11.9641 21.7898 11.9758 21.8023 11.9872 21.8145C12.0036 21.8324 12.02 21.8504 12.036 21.8684C12.0465 21.8809 12.0575 21.893 12.068 21.9055C12.0805 21.9203 12.0926 21.9348 12.1047 21.9496C12.1655 22.0238 12.2223 22.1011 12.2751 22.1813C12.3079 22.2305 12.3391 22.2812 12.3688 22.3328C12.3797 22.3523 12.3907 22.3715 12.4012 22.391C12.4118 22.4105 12.4223 22.4305 12.4325 22.4504C12.4387 22.4625 12.445 22.4746 12.4508 22.4867C12.4756 22.5369 12.499 22.5877 12.5212 22.6391C12.5286 22.657 12.536 22.6754 12.543 22.6934C12.5504 22.7117 12.5575 22.7297 12.5641 22.748C12.5692 22.7609 12.5739 22.7738 12.5782 22.7867C12.5829 22.7992 12.5876 22.8121 12.5919 22.8254C12.6308 22.939 12.6624 23.055 12.6864 23.1727C12.6911 23.1957 12.6958 23.2187 12.6997 23.2422C12.704 23.2652 12.7079 23.2887 12.7114 23.3125C12.7149 23.3348 12.718 23.357 12.7208 23.3793C12.7227 23.3949 12.7247 23.4102 12.7262 23.4258C12.7294 23.4527 12.7321 23.4801 12.734 23.5074C12.7356 23.5215 12.7368 23.5355 12.7376 23.5496L12.7387 23.5707C12.7399 23.5875 12.7407 23.6047 12.7415 23.6219C12.7426 23.6422 12.743 23.6625 12.7434 23.6832C12.7469 23.8389 12.7375 23.9947 12.7153 24.1488C12.709 24.1918 12.702 24.2348 12.6938 24.2773C12.6911 24.2934 12.6879 24.309 12.6844 24.325C12.684 24.3273 12.6837 24.3301 12.6829 24.3324C12.679 24.3508 12.6751 24.3691 12.6708 24.3875C12.6669 24.4059 12.6622 24.4238 12.6579 24.4418L12.6555 24.45C12.6288 24.555 12.5959 24.6583 12.5571 24.7594C12.5485 24.7824 12.5391 24.8055 12.5297 24.8285C12.4981 24.9054 12.463 24.9809 12.4247 25.0547C11.9512 25.9645 11.0001 26.5918 9.90358 26.5918C8.8024 26.5918 7.84811 25.9594 7.37623 25.0437C7.37037 25.0324 7.36451 25.0203 7.35904 25.0086C7.34733 24.9852 7.336 24.9617 7.32545 24.9383C7.31803 24.923 7.311 24.9074 7.30436 24.8918C7.26147 24.7952 7.22417 24.6962 7.19264 24.5953C7.17118 24.5272 7.15228 24.4582 7.136 24.3887C7.13092 24.3664 7.12584 24.3437 7.12115 24.3215C7.11998 24.3148 7.11881 24.3086 7.11764 24.3023C7.11334 24.2824 7.10943 24.2621 7.10631 24.2422L7.10396 24.2309C7.09967 24.2047 7.09537 24.1781 7.09146 24.1516C7.07232 24.0188 7.06256 23.8828 7.06256 23.7449C7.06256 22.1762 8.33443 20.9043 9.90358 20.9043ZM9.14068 24.141C9.28404 24.4164 9.57154 24.6043 9.90358 24.6043C10.2352 24.6043 10.5231 24.4164 10.6661 24.141C10.7299 24.0187 10.7631 23.8828 10.763 23.7449C10.763 23.2703 10.3782 22.8855 9.90358 22.8855C9.42897 22.8855 9.0442 23.2703 9.0442 23.7449C9.0442 23.8879 9.07896 24.0227 9.14068 24.141Z" fill="#FFFEFE"/>
<path d="M3.55651 21.4395L4.03971 17.5172C4.05612 17.3832 4.09323 17.2535 4.15026 17.132C4.2069 17.0098 4.28268 16.8977 4.37526 16.7992L4.46198 16.7066H4.47487L6.76823 14.2543C7.45846 13.5164 8.43385 13.0934 9.44245 13.0934L20.396 13.0566C21.1557 13.0566 21.9038 13.2598 22.5592 13.6441L27.7565 16.6918L27.7495 16.7035L33.2053 17.0891C34.096 17.152 34.919 17.5492 35.5233 18.2082C35.9108 18.6313 36.1897 19.1477 36.3299 19.7016C36.3972 19.9675 36.4329 20.2405 36.4362 20.5148L36.4608 22.5848C36.4667 23.0703 36.2819 23.5277 35.9409 23.873C35.5995 24.2184 35.1444 24.4086 34.6588 24.4086H33.0858C33.126 24.2157 33.1493 24.0196 33.1553 23.8227C33.1565 23.7859 33.1573 23.7488 33.1573 23.7117C33.1573 21.8223 31.6202 20.2852 29.7307 20.2852C27.8413 20.2852 26.3042 21.8223 26.3042 23.7117C26.3042 23.7492 26.3049 23.7867 26.3061 23.8242C26.3092 23.9219 26.3167 24.0199 26.3284 24.1172C26.3311 24.1441 26.3346 24.1711 26.3385 24.198C26.3487 24.2691 26.3608 24.3398 26.3756 24.4098L13.2585 24.4406C13.2729 24.3719 13.285 24.3023 13.2948 24.2328C13.2991 24.2043 13.3026 24.1758 13.3057 24.1473C13.3178 24.0504 13.3253 23.9523 13.328 23.8543C13.3296 23.818 13.3299 23.7812 13.3299 23.7449C13.3299 22.1965 12.2975 20.8844 10.8846 20.4617C10.6936 20.4043 10.4952 20.3633 10.2917 20.3406C10.1643 20.3258 10.0346 20.3184 9.90339 20.3184C8.04362 20.3184 6.52487 21.8074 6.4776 23.6562V23.6566C6.47495 23.7594 6.4769 23.8622 6.48346 23.9648C6.48912 24.0553 6.49838 24.1455 6.5112 24.2352L6.51823 24.282L4.91002 23.7875L4.90104 23.7848C3.99284 23.4742 3.4276 22.4879 3.55651 21.4395ZM34.4276 21.7531H35.66V21.1672H34.4276V21.7531ZM33.069 19.1703L33.2518 19.4262C33.3631 19.5819 33.5099 19.7088 33.6801 19.7964C33.8503 19.884 34.0389 19.9297 34.2303 19.9297H35.5518C35.4424 19.4973 35.2268 19.1059 34.9338 18.7859H33.2667C33.069 18.7859 32.9542 19.0094 33.069 19.1703ZM18.7276 18.6184H20.3424V18.0324H18.7276V18.6184ZM17.8854 16.6895L25.4088 16.6738L21.9663 14.6551C21.4905 14.3762 20.9475 14.2285 20.3979 14.2285L17.7983 14.2371C17.8182 14.9789 17.8491 15.8125 17.8854 16.6895ZM11.287 18.6184H12.8964V18.0324H11.287V18.6184ZM16.7124 16.6918C16.6764 15.8164 16.646 14.9836 16.626 14.241L12.3311 14.2555L10.7268 16.7039L16.7124 16.6918ZM9.3237 16.7066L10.9268 14.2602L9.4444 14.2652C8.75729 14.2652 8.09362 14.5531 7.62448 15.0551L6.07995 16.7066H9.3237ZM5.22252 20.0391C5.41901 20.0312 5.59753 19.9238 5.69674 19.7539L5.98385 19.2629C6.1151 19.0387 5.95338 18.7566 5.69362 18.7566H4.62057L4.45846 20.0699L5.22252 20.0391Z" fill="#FFFEFE"/>
<path d="M29.7307 20.8711C31.2994 20.8711 32.5713 22.143 32.5713 23.7117C32.5713 23.8904 32.5544 24.0686 32.5209 24.2441C32.5182 24.2602 32.515 24.2758 32.5115 24.2918C32.5111 24.2941 32.5107 24.2969 32.51 24.2992C32.5061 24.3176 32.5021 24.3359 32.4979 24.3543C32.4939 24.3727 32.4893 24.3906 32.485 24.4086L32.4826 24.4168C32.4771 24.4383 32.4717 24.4598 32.4654 24.4812C32.4451 24.5547 32.4213 24.627 32.3951 24.6977C32.3893 24.7137 32.3834 24.7297 32.3771 24.7453C32.3541 24.8039 32.3295 24.8617 32.3025 24.9184C32.2955 24.934 32.2881 24.9496 32.2803 24.9652C32.2709 24.984 32.2615 25.0027 32.2518 25.0215C31.7783 25.9313 30.8271 26.5523 29.7307 26.5523C28.6295 26.5523 27.6752 25.9262 27.2033 25.0105C27.1975 24.9992 27.1916 24.9875 27.1861 24.9754C27.1779 24.959 27.1697 24.9422 27.1619 24.9254C27.1549 24.9109 27.1482 24.8965 27.1416 24.882C27.1393 24.877 27.1369 24.8719 27.135 24.8668C27.1283 24.8523 27.1221 24.8383 27.1162 24.8238C27.1002 24.7863 27.085 24.7488 27.0705 24.7105C27.065 24.6961 27.06 24.6816 27.0549 24.6672C27.0412 24.6293 27.0283 24.591 27.0162 24.552C27.0092 24.5289 27.0025 24.5059 26.9959 24.4824C26.9893 24.4578 26.9826 24.4332 26.9764 24.4086C26.9662 24.368 26.9568 24.327 26.9482 24.2855C26.9479 24.2844 26.9475 24.2828 26.9475 24.2816C26.9443 24.2668 26.9412 24.252 26.9389 24.2371C26.9357 24.2215 26.9326 24.2055 26.9303 24.1898C26.926 24.1652 26.9221 24.1406 26.9186 24.1156C26.8998 23.9836 26.89 23.8488 26.89 23.7117C26.89 22.143 28.1615 20.8711 29.7307 20.8711ZM28.9678 24.1082C29.1111 24.3832 29.3986 24.5711 29.7307 24.5711C30.0623 24.5711 30.3502 24.3832 30.4932 24.1082C30.5571 23.9858 30.5903 23.8498 30.59 23.7117C30.59 23.2371 30.2053 22.8523 29.7307 22.8523C29.2561 22.8523 28.8713 23.2371 28.8713 23.7117C28.8713 23.8547 28.9061 23.9895 28.9678 24.1082Z" fill="#FFFEFE"/>
</svg>
