<svg width="40" height="40" viewBox="0 0 40 40" fill="none" xmlns="http://www.w3.org/2000/svg">
<path d="M32 18.0664V13.3331C29.7833 13.3331 28.0917 12.7414 27 11.5914C25.8796 10.2789 25.2519 8.61686 25.225 6.89141V6.54974L20.75 6.44141V25.6664C20.5965 26.5052 20.1893 27.2767 19.5835 27.8768C18.9776 28.4768 18.2022 28.8765 17.362 29.022C16.5217 29.1674 15.6571 29.0515 14.8848 28.6899C14.1125 28.3284 13.4697 27.7386 13.0433 27.0002C12.6168 26.2618 12.4272 25.4103 12.4999 24.5606C12.5727 23.711 12.9045 22.9042 13.4503 22.2491C13.9962 21.594 14.7299 21.1221 15.5525 20.8972C16.375 20.6723 17.2467 20.7052 18.05 20.9914V16.4081C17.5817 16.3313 17.1079 16.2923 16.6333 16.2914C14.9258 16.2914 13.2567 16.7977 11.8369 17.7464C10.4172 18.695 9.31061 20.0434 8.65718 21.6209C8.00374 23.1984 7.83277 24.9343 8.16589 26.609C8.49901 28.2837 9.32126 29.822 10.5286 31.0294C11.736 32.2368 13.2744 33.0591 14.9491 33.3922C16.6238 33.7253 18.3596 33.5543 19.9372 32.9009C21.5147 32.2475 22.863 31.1409 23.8117 29.7212C24.7603 28.3014 25.2667 26.6323 25.2667 24.9247C25.2657 24.5709 25.2435 24.2175 25.2 23.8664V16.2414C27.2349 17.5122 29.6023 18.1476 32 18.0664Z" fill="white"/>
</svg>
